<svg preserveAspectRatio="none" width="100%" height="100%" overflow="visible" style="display: block;" viewBox="0 0 16 16" fill="none" xmlns="http://www.w3.org/2000/svg">
<g id="profile-circle">
<path id="Vector" d="M14.6667 8C14.6667 4.32667 11.6733 1.33333 8 1.33333C4.32667 1.33333 1.33333 4.32667 1.33333 8C1.33333 9.93333 2.16667 11.6733 3.48667 12.8933C3.48667 12.9 3.48667 12.9 3.48 12.9067C3.54667 12.9733 3.62667 13.0267 3.69333 13.0867C3.73333 13.12 3.76667 13.1533 3.80667 13.18C3.92667 13.28 4.06 13.3733 4.18667 13.4667C4.23333 13.5 4.27333 13.5267 4.32 13.56C4.44667 13.6467 4.58 13.7267 4.72 13.8C4.76667 13.8267 4.82 13.86 4.86667 13.8867C5 13.96 5.14 14.0267 5.28667 14.0867C5.34 14.1133 5.39333 14.14 5.44667 14.16C5.59333 14.22 5.74 14.2733 5.88667 14.32C5.94 14.34 5.99333 14.36 6.04667 14.3733C6.20667 14.42 6.36667 14.46 6.52667 14.5C6.57333 14.5133 6.62 14.5267 6.67333 14.5333C6.86 14.5733 7.04667 14.6 7.24 14.62C7.26667 14.62 7.29333 14.6267 7.32 14.6333C7.54667 14.6533 7.77333 14.6667 8 14.6667C8.22667 14.6667 8.45333 14.6533 8.67333 14.6333C8.7 14.6333 8.72667 14.6267 8.75333 14.62C8.94667 14.6 9.13333 14.5733 9.32 14.5333C9.36667 14.5267 9.41333 14.5067 9.46667 14.5C9.62667 14.46 9.79333 14.4267 9.94667 14.3733C10 14.3533 10.0533 14.3333 10.1067 14.32C10.2533 14.2667 10.4067 14.22 10.5467 14.16C10.6 14.14 10.6533 14.1133 10.7067 14.0867C10.8467 14.0267 10.9867 13.96 11.1267 13.8867C11.18 13.86 11.2267 13.8267 11.2733 13.8C11.4067 13.72 11.54 13.6467 11.6733 13.56C11.72 13.5333 11.76 13.5 11.8067 13.4667C11.94 13.3733 12.0667 13.28 12.1867 13.18C12.2267 13.1467 12.26 13.1133 12.3 13.0867C12.3733 13.0267 12.4467 12.9667 12.5133 12.9067C12.5133 12.9 12.5133 12.9 12.5067 12.8933C13.8333 11.6733 14.6667 9.93333 14.6667 8ZM11.2933 11.3133C9.48667 10.1 6.52667 10.1 4.70667 11.3133C4.41333 11.5067 4.17333 11.7333 3.97333 11.98C2.96 10.9533 2.33333 9.54667 2.33333 8C2.33333 4.87333 4.87333 2.33333 8 2.33333C11.1267 2.33333 13.6667 4.87333 13.6667 8C13.6667 9.54667 13.04 10.9533 12.0267 11.98C11.8333 11.7333 11.5867 11.5067 11.2933 11.3133Z" fill="var(--fill-0, #171717)"/>
<path id="Vector_2" d="M8 4.62C6.62 4.62 5.5 5.74 5.5 7.12C5.5 8.47333 6.56 9.57333 7.96667 9.61333C7.98667 9.61333 8.01333 9.61333 8.02667 9.61333C8.04 9.61333 8.06 9.61333 8.07333 9.61333C8.08 9.61333 8.08667 9.61333 8.08667 9.61333C9.43333 9.56667 10.4933 8.47333 10.5 7.12C10.5 5.74 9.38 4.62 8 4.62Z" fill="var(--fill-0, #171717)"/>
<g id="Vector_3" opacity="0">
</g>
</g>
</svg>
