<svg preserveAspectRatio="none" width="100%" height="100%" overflow="visible" style="display: block;" viewBox="0 0 24 24" fill="none" xmlns="http://www.w3.org/2000/svg">
<g id="profile-2user">
<path id="Vector" d="M9 2.75C11.2058 2.75 13 4.54421 13 6.75C12.9901 8.91794 11.2979 10.6645 9.14355 10.7402H9.14258C9.0562 10.7316 8.97014 10.734 8.88965 10.7393C6.67629 10.655 5 8.90531 5 6.75C5 4.54421 6.79421 2.75 9 2.75Z" fill="var(--fill-0, #FF0083)" stroke="var(--stroke-0, #FF0083)" stroke-width="1.5"/>
<path id="Vector_2" d="M9.01273 13.505C10.7358 13.505 12.4178 13.9427 13.6641 14.7736C14.6993 15.4637 15.2155 16.3248 15.2823 17.1925L15.2901 17.3663C15.2877 18.2927 14.7685 19.2202 13.6602 19.9679C12.409 20.8074 10.7238 21.2501 9.00004 21.2501C7.27562 21.2501 5.58926 20.8071 4.33793 19.9669L4.33598 19.9659C3.22758 19.227 2.71 18.2976 2.71 17.38C2.71 16.4623 3.22762 15.5237 4.34379 14.7755C5.60131 13.9431 7.28973 13.505 9.01273 13.505Z" fill="var(--fill-0, #FF0083)" stroke="var(--stroke-0, #FF0083)" stroke-width="1.5"/>
<path id="Vector_3" d="M16.1754 4.81631C17.6261 4.69084 18.9339 5.69865 19.2028 7.11513L19.2428 7.4042C19.3678 8.93533 18.2895 10.2637 16.8024 10.4599C16.7719 10.4593 16.6709 10.4585 16.5485 10.4813C16.0849 10.4976 15.6521 10.4127 15.2692 10.246C16.0526 9.22955 16.469 7.92642 16.358 6.53994L16.3571 6.53506C16.3052 5.93526 16.153 5.3701 15.9254 4.85049C16.0076 4.83623 16.091 4.82384 16.1754 4.81631Z" fill="var(--fill-0, #FF0083)" stroke="var(--stroke-0, #FF0083)" stroke-width="1.5"/>
<path id="Vector_4" d="M16.489 13.2603C17.8841 13.3278 19.2618 13.7716 20.2185 14.5435L20.2195 14.5445C21.0007 15.1729 21.3033 15.8763 21.2429 16.5201V16.5279C21.1886 17.1862 20.7678 17.8307 19.8894 18.3121L19.8884 18.3131C19.4307 18.5648 18.8987 18.747 18.3298 18.8619C18.5047 18.4926 18.6253 18.1026 18.6834 17.6978L18.7068 17.4996L18.7078 17.4898C18.8321 15.9458 18.0847 14.5315 16.7605 13.4654L16.7556 13.4615L16.489 13.2603Z" fill="var(--fill-0, #FF0083)" stroke="var(--stroke-0, #FF0083)" stroke-width="1.5"/>
<g id="Vector_5" opacity="0">
</g>
</g>
</svg>
