<svg preserveAspectRatio="none" width="100%" height="100%" overflow="visible" style="display: block;" viewBox="0 0 17 16" fill="none" xmlns="http://www.w3.org/2000/svg">
<g id="profile-circle">
<path id="Vector" d="M15.4946 8C15.4946 4.32667 12.3323 1.33333 8.45161 1.33333C4.57091 1.33333 1.4086 4.32667 1.4086 8C1.4086 9.93333 2.28898 11.6733 3.68349 12.8933C3.68349 12.9 3.68349 12.9 3.67645 12.9067C3.74688 12.9733 3.8314 13.0267 3.90183 13.0867C3.94409 13.12 3.9793 13.1533 4.02156 13.18C4.14833 13.28 4.28919 13.3733 4.42301 13.4667C4.47231 13.5 4.51457 13.5267 4.56387 13.56C4.69769 13.6467 4.83855 13.7267 4.98645 13.8C5.03575 13.8267 5.0921 13.86 5.1414 13.8867C5.28226 13.96 5.43016 14.0267 5.58511 14.0867C5.64145 14.1133 5.6978 14.14 5.75414 14.16C5.90909 14.22 6.06403 14.2733 6.21898 14.32C6.27532 14.34 6.33167 14.36 6.38801 14.3733C6.55704 14.42 6.72607 14.46 6.89511 14.5C6.94441 14.5133 6.99371 14.5267 7.05005 14.5333C7.24726 14.5733 7.44446 14.6 7.64871 14.62C7.67688 14.62 7.70505 14.6267 7.73322 14.6333C7.97269 14.6533 8.21215 14.6667 8.45161 14.6667C8.69107 14.6667 8.93054 14.6533 9.16296 14.6333C9.19113 14.6333 9.2193 14.6267 9.24747 14.62C9.45172 14.6 9.64892 14.5733 9.84613 14.5333C9.89543 14.5267 9.94473 14.5067 10.0011 14.5C10.1701 14.46 10.3462 14.4267 10.5082 14.3733C10.5645 14.3533 10.6209 14.3333 10.6772 14.32C10.8321 14.2667 10.9941 14.22 11.142 14.16C11.1984 14.14 11.2547 14.1133 11.3111 14.0867C11.459 14.0267 11.6069 13.96 11.7548 13.8867C11.8111 13.86 11.8604 13.8267 11.9097 13.8C12.0506 13.72 12.1915 13.6467 12.3323 13.56C12.3816 13.5333 12.4239 13.5 12.4732 13.4667C12.614 13.3733 12.7478 13.28 12.8746 13.18C12.9169 13.1467 12.9521 13.1133 12.9944 13.0867C13.0718 13.0267 13.1493 12.9667 13.2197 12.9067C13.2197 12.9 13.2197 12.9 13.2127 12.8933C14.6142 11.6733 15.4946 9.93333 15.4946 8ZM11.9309 11.3133C10.0222 10.1 6.89511 10.1 4.97237 11.3133C4.66247 11.5067 4.40892 11.7333 4.19763 11.98C3.1271 10.9533 2.46505 9.54667 2.46505 8C2.46505 4.87333 5.14844 2.33333 8.45161 2.33333C11.7548 2.33333 14.4382 4.87333 14.4382 8C14.4382 9.54667 13.7761 10.9533 12.7056 11.98C12.5013 11.7333 12.2408 11.5067 11.9309 11.3133Z" fill="var(--fill-0, #171717)"/>
<path id="Vector_2" d="M8.45161 4.62C6.99371 4.62 5.81048 5.74 5.81048 7.12C5.81048 8.47333 6.93032 9.57333 8.4164 9.61333C8.43753 9.61333 8.4657 9.61333 8.47978 9.61333C8.49387 9.61333 8.515 9.61333 8.52909 9.61333C8.53613 9.61333 8.54317 9.61333 8.54317 9.61333C9.96586 9.56667 11.0857 8.47333 11.0927 7.12C11.0927 5.74 9.90952 4.62 8.45161 4.62Z" fill="var(--fill-0, #171717)"/>
<g id="Vector_3" opacity="0">
</g>
</g>
</svg>
