<svg preserveAspectRatio="none" width="100%" height="100%" overflow="visible" style="display: block;" viewBox="0 0 24 24" fill="none" xmlns="http://www.w3.org/2000/svg">
<g id="location">
<path id="Vector" opacity="0.4" d="M20.62 8.45C19.57 3.83 15.54 1.75 12 1.75C12 1.75 12 1.75 11.99 1.75C8.46 1.75 4.42 3.82 3.37 8.44C2.2 13.6 5.36 17.97 8.22 20.72C9.28 21.74 10.64 22.25 12 22.25C13.36 22.25 14.72 21.74 15.77 20.72C18.63 17.97 21.79 13.61 20.62 8.45Z" fill="var(--fill-0, #171717)"/>
<path id="Vector_2" d="M12 13.46C13.7397 13.46 15.15 12.0497 15.15 10.31C15.15 8.5703 13.7397 7.16 12 7.16C10.2603 7.16 8.85 8.5703 8.85 10.31C8.85 12.0497 10.2603 13.46 12 13.46Z" fill="var(--fill-0, #171717)"/>
<g id="Vector_3" opacity="0">
</g>
</g>
</svg>
