<svg preserveAspectRatio="none" width="100%" height="100%" overflow="visible" style="display: block;" viewBox="0 0 16 16" fill="none" xmlns="http://www.w3.org/2000/svg">
<g id="candle">
<path id="Vector" d="M4.33333 14.6667V10" stroke="var(--stroke-0, #2C2235)" stroke-width="1.5" stroke-miterlimit="10" stroke-linecap="round" stroke-linejoin="round"/>
<path id="Vector_2" d="M4.33333 3.33333V1.33333" stroke="var(--stroke-0, #2C2235)" stroke-width="1.5" stroke-miterlimit="10" stroke-linecap="round" stroke-linejoin="round"/>
<path id="Vector_3" d="M11.6667 14.6667V12.6667" stroke="var(--stroke-0, #2C2235)" stroke-width="1.5" stroke-miterlimit="10" stroke-linecap="round" stroke-linejoin="round"/>
<path id="Vector_4" d="M11.6667 6V1.33333" stroke="var(--stroke-0, #2C2235)" stroke-width="1.5" stroke-miterlimit="10" stroke-linecap="round" stroke-linejoin="round"/>
<path id="Vector_5" d="M6.33333 4.66667V8.66667C6.33333 9.4 6 10 5 10H3.66667C2.66667 10 2.33333 9.4 2.33333 8.66667V4.66667C2.33333 3.93333 2.66667 3.33333 3.66667 3.33333H5C6 3.33333 6.33333 3.93333 6.33333 4.66667Z" stroke="var(--stroke-0, #2C2235)" stroke-width="1.5" stroke-miterlimit="10" stroke-linecap="round" stroke-linejoin="round"/>
<path id="Vector_6" d="M13.6667 7.33333V11.3333C13.6667 12.0667 13.3333 12.6667 12.3333 12.6667H11C10 12.6667 9.66667 12.0667 9.66667 11.3333V7.33333C9.66667 6.6 10 6 11 6H12.3333C13.3333 6 13.6667 6.6 13.6667 7.33333Z" stroke="var(--stroke-0, #2C2235)" stroke-width="1.5" stroke-miterlimit="10" stroke-linecap="round" stroke-linejoin="round"/>
<g id="Vector_7" opacity="0">
</g>
</g>
</svg>
