<?xml version="1.0" encoding="UTF-8"?><svg id="a" xmlns="http://www.w3.org/2000/svg" viewBox="0 0 1000 1000"><defs><style>.b{fill:#fffbee;stroke-width:0px;}</style></defs><path class="b" d="M621.441,276.078c-49.328,0-89.464,40.136-89.464,89.47,0,16.198,4.328,31.405,11.888,44.525,9.263,16.076,9.158,35.897-.041,52.01h0c-9.315,16.315-26.634,26.275-45.42,26.484-.593.007-1.187.019-1.782.037-48.341,1.482-86.953,41.585-86.676,89.948.281,48.962,40.092,88.733,89.07,88.948,48.741.214,88.973-39.088,89.853-87.822.298-16.492-3.891-32.002-11.426-45.386-8.993-15.975-8.739-35.549.352-51.468l1.793-3.14c8.667-15.177,24.768-24.596,42.246-24.671.3-.001.601-.004.902-.008,49.101-.696,88.2-40.389,88.179-89.495-.022-49.315-40.149-89.43-89.475-89.43Z"/><path class="b" d="M449.804,418.061s.005-.007.007-.01c.825-1.101,1.625-2.22,2.4-3.36.106-.156.207-.316.313-.473.666-.993,1.317-1.996,1.944-3.016.189-.307.369-.621.554-.931.527-.882,1.047-1.767,1.544-2.668.255-.461.495-.93.742-1.396.406-.767.81-1.534,1.194-2.313.302-.613.587-1.237.876-1.858.3-.648.604-1.293.889-1.949.337-.773.652-1.558.968-2.342.208-.518.422-1.033.62-1.555.359-.943.692-1.898,1.02-2.856.128-.376.263-.748.386-1.125.369-1.128.708-2.267,1.033-3.414.061-.214.126-.426.185-.641.366-1.332.699-2.677,1.005-4.033.007-.03.014-.059.021-.089,1.377-6.143,2.142-12.514,2.179-19.058.096-16.738-4.472-32.483-12.484-45.984-7.944-15.609-7.393-34.269,1.341-49.564l1.794-3.14c8.667-15.178,24.768-24.596,42.246-24.671.3-.001.601-.004.902-.008,49.101-.696,88.2-40.389,88.179-89.495-.022-49.315-40.149-89.43-89.475-89.43s-89.464,40.136-89.464,89.47c0,16.198,4.328,31.405,11.888,44.525,9.264,16.076,9.158,35.897-.041,52.01-8.738,15.304-24.519,25.015-41.946,26.333-.466-.012-.932-.024-1.397-.029-18.786-.209-36.105-10.169-45.42-26.484-9.199-16.113-9.304-35.934-.041-52.01,7.56-13.12,11.888-28.327,11.888-44.525,0-49.333-40.136-89.47-89.464-89.47s-89.453,40.115-89.475,89.43c-.021,49.106,39.078,88.799,88.179,89.495.301.004.602.007.902.008,17.478.075,33.579,9.493,42.246,24.671l1.794,3.14c9.091,15.919,9.344,35.493.352,51.468-3.893,6.915-6.883,14.4-8.832,22.291-.051.206-.098.413-.148.619-.228.952-.441,1.91-.637,2.873-.104.499-.21.996-.305,1.498-.038.205-.069.414-.106.62-.98,5.371-1.498,10.896-1.466,16.54.281,48.962,40.092,88.733,89.07,88.948,29.349.129,55.597-14.082,72.042-36.04Z"/><path class="b" d="M743.901,63.126c-49.285,0-89.381,40.096-89.381,89.384s40.096,89.381,89.385,89.381,89.381-40.096,89.381-89.381-40.096-89.384-89.384-89.384Z"/><path class="b" d="M187.853,758.046h45.748l-62.936,177.432h-54.089l-62.934-177.432h46l43.979,133.959,44.233-133.959Z"/><path class="b" d="M237.391,756.529c0-13.143,10.362-23.506,25.781-23.506,15.164,0,25.528,10.363,25.528,23.506,0,12.891-10.363,23.253-25.528,23.253-15.419,0-25.781-10.363-25.781-23.253ZM241.435,794.442h43.221v141.036h-43.221v-141.036Z"/><path class="b" d="M398.14,858.894c0-19.209-10.615-29.824-27.045-29.824s-27.043,10.615-27.043,29.824v76.584h-43.221v-141.036h43.221v18.703c8.593-11.88,23.758-20.22,42.714-20.22,32.606,0,54.343,22.242,54.343,60.156v82.397h-42.969v-76.584Z"/><path class="b" d="M518.702,937.5c-41.452,0-71.277-27.802-71.277-72.54s29.32-72.539,71.277-72.539c41.199,0,70.264,27.296,70.264,70.265,0,4.044-.252,8.341-.757,12.638h-97.815c1.515,18.451,12.891,27.044,26.791,27.044,12.132,0,18.957-6.066,22.496-13.648h46c-6.823,27.55-31.846,48.781-66.978,48.781ZM490.646,851.312h54.089c0-15.419-12.132-24.264-26.538-24.264-14.156,0-25.023,8.593-27.551,24.264Z"/><path class="b" d="M596.55,758.046h51.056l49.792,122.837,49.287-122.837h50.804v177.432h-43.221v-106.409l-39.682,106.409h-34.881l-39.934-106.661v106.661h-43.221v-177.432Z"/><path class="b" d="M876.094,937.5c-41.452,0-71.276-27.802-71.276-72.54s29.319-72.539,71.276-72.539c41.199,0,70.266,27.296,70.266,70.265,0,4.044-.253,8.341-.758,12.638h-97.815c1.517,18.451,12.891,27.044,26.791,27.044,12.132,0,18.957-6.066,22.496-13.648h46c-6.825,27.55-31.846,48.781-66.978,48.781ZM848.037,851.312h54.089c0-15.419-12.132-24.264-26.54-24.264-14.153,0-25.021,8.593-27.55,24.264Z"/></svg>