<?xml version="1.0" encoding="UTF-8"?><svg id="a" xmlns="http://www.w3.org/2000/svg" viewBox="0 0 1000 1000"><defs><style>.b{fill:#fffbee;stroke-width:0px;}</style></defs><path class="b" d="M733.199,117.887c-96.369,0-174.781,78.412-174.781,174.791,0,31.645,8.455,61.354,23.226,86.986,18.097,31.406,17.892,70.129-.08,101.608h0c-18.197,31.874-52.033,51.332-88.734,51.74-1.158.013-2.318.037-3.481.073-94.44,2.895-169.873,81.242-169.332,175.725.548,95.654,78.326,173.352,174.009,173.772,95.222.418,173.82-76.365,175.541-171.572.582-32.219-7.601-62.52-22.321-88.668-17.569-31.209-17.073-69.449.687-100.55l3.503-6.135c16.933-29.651,48.388-48.052,82.533-48.198.587-.002,1.174-.008,1.762-.016,95.926-1.36,172.311-78.905,172.269-174.84-.042-96.344-78.437-174.714-174.801-174.714Z"/><path class="b" d="M432.645,291.502c0-96.291-78.334-174.624-174.624-174.624s-174.618,78.333-174.618,174.624,78.333,174.618,174.624,174.618,174.618-78.334,174.618-174.618Z"/></svg>