<?xml version="1.0" encoding="UTF-8"?><svg id="a" xmlns="http://www.w3.org/2000/svg" viewBox="0 0 1000 1000"><defs><style>.b{fill:#ff0083;stroke-width:0px;}</style></defs><path class="b" d="M665.204,378.302c-67.511,0-122.441,54.93-122.441,122.448,0,22.169,5.923,42.981,16.27,60.937,12.678,22.001,12.534,49.128-.056,71.18h0c-12.748,22.329-36.451,35.96-62.162,36.246-.811.009-1.624.026-2.438.051-66.159,2.028-119.003,56.913-118.624,123.102.384,67.009,54.87,121.44,121.9,121.734,66.706.293,121.767-53.496,122.973-120.193.408-22.57-5.325-43.797-15.637-62.116-12.308-21.863-11.96-48.652.482-70.439l2.454-4.298c11.862-20.772,33.897-33.662,57.817-33.764.411-.002.823-.006,1.235-.011,67.2-.953,120.71-55.276,120.681-122.482-.029-67.493-54.948-122.394-122.455-122.394Z"/><path class="b" d="M430.302,572.62s.006-.009.01-.014c1.129-1.507,2.225-3.039,3.284-4.598.146-.214.284-.432.428-.647.911-1.359,1.803-2.732,2.661-4.128.259-.421.504-.85.758-1.275.721-1.207,1.433-2.419,2.113-3.652.349-.631.678-1.273,1.016-1.91.555-1.049,1.109-2.099,1.634-3.166.414-.84.803-1.693,1.198-2.543.411-.886.827-1.77,1.217-2.667.462-1.059.893-2.132,1.325-3.206.284-.709.577-1.413.849-2.129.492-1.291.948-2.598,1.396-3.909.175-.514.36-1.023.528-1.54.505-1.543.969-3.103,1.414-4.673.083-.293.173-.583.254-.878.501-1.823.957-3.663,1.376-5.519.009-.041.02-.081.029-.122,1.885-8.407,2.931-17.127,2.982-26.082.131-22.908-6.121-44.457-17.086-62.934-10.872-21.363-10.118-46.9,1.836-67.833l2.455-4.298c11.862-20.772,33.897-33.662,57.817-33.765.411-.002.823-.006,1.235-.011,67.2-.953,120.71-55.276,120.681-122.482-.029-67.493-54.948-122.394-122.455-122.394s-122.44,54.93-122.44,122.448c0,22.169,5.923,42.981,16.27,60.937,12.678,22.001,12.534,49.128-.056,71.18-11.958,20.946-33.556,34.236-57.408,36.039-.638-.017-1.276-.033-1.911-.04-25.71-.286-49.414-13.917-62.162-36.246-12.589-22.052-12.734-49.179-.056-71.18,10.347-17.956,16.27-38.768,16.27-60.937,0-67.517-54.93-122.448-122.44-122.448s-122.426,54.901-122.455,122.394c-.029,67.206,53.481,121.53,120.681,122.482.412.006.823.01,1.235.011,23.92.102,45.956,12.993,57.817,33.765l2.455,4.298c12.442,21.787,12.789,48.576.481,70.439-5.327,9.463-9.42,19.708-12.088,30.508-.07.281-.134.565-.202.847-.312,1.303-.603,2.614-.872,3.932-.142.683-.287,1.363-.418,2.05-.053.281-.094.566-.145.848-1.342,7.351-2.051,14.912-2.006,22.636.384,67.009,54.87,121.44,121.9,121.734,40.166.176,76.089-19.273,98.596-49.324Z"/><path class="b" d="M832.801,86.857c-67.451,0-122.327,54.876-122.327,122.331s54.876,122.327,122.331,122.327,122.327-54.876,122.327-122.327-54.875-122.331-122.331-122.331Z"/></svg>