<?xml version="1.0" encoding="UTF-8"?><svg id="a" xmlns="http://www.w3.org/2000/svg" viewBox="0 0 1000 1000"><defs><style>.b{fill:#2c2235;stroke-width:0px;}</style></defs><path class="b" d="M200.536,425.922h43.889l-60.379,170.223h-51.892l-60.377-170.223h44.131l42.192,128.515,42.435-128.515Z"/><path class="b" d="M248.062,424.467c0-12.609,9.941-22.551,24.734-22.551,14.548,0,24.491,9.942,24.491,22.551,0,12.367-9.942,22.308-24.491,22.308-14.793,0-24.734-9.942-24.734-22.308ZM251.941,460.839h41.465v135.305h-41.465v-135.305Z"/><path class="b" d="M402.278,522.672c0-18.429-10.184-28.613-25.946-28.613s-25.944,10.184-25.944,28.613v73.472h-41.465v-135.305h41.465v17.943c8.244-11.397,22.792-19.399,40.979-19.399,31.281,0,52.135,21.338,52.135,57.711v79.049h-41.223v-73.472Z"/><path class="b" d="M517.943,598.084c-39.768,0-68.381-26.673-68.381-69.593s28.129-69.592,68.381-69.592c39.525,0,67.409,26.187,67.409,67.41,0,3.88-.242,8.002-.726,12.125h-93.841c1.454,17.701,12.367,25.945,25.703,25.945,11.639,0,18.186-5.82,21.582-13.094h44.131c-6.546,26.43-30.552,46.799-64.257,46.799ZM491.026,515.398h51.892c0-14.792-11.639-23.278-25.46-23.278-13.581,0-24.006,8.244-26.432,23.278Z"/><path class="b" d="M592.626,425.922h48.981l47.769,117.846,47.284-117.846h48.74v170.223h-41.465v-102.085l-38.07,102.085h-33.464l-38.311-102.327v102.327h-41.465v-170.223Z"/><path class="b" d="M860.812,598.084c-39.768,0-68.38-26.673-68.38-69.593s28.127-69.592,68.38-69.592c39.525,0,67.411,26.187,67.411,67.41,0,3.88-.243,8.002-.728,12.125h-93.841c1.455,17.701,12.367,25.945,25.703,25.945,11.639,0,18.186-5.82,21.582-13.094h44.131c-6.547,26.43-30.552,46.799-64.257,46.799ZM833.895,515.398h51.892c0-14.792-11.639-23.278-25.461-23.278-13.577,0-24.004,8.244-26.43,23.278Z"/></svg>